<svg width="426" height="455" viewBox="0 0 426 455" fill="none" xmlns="http://www.w3.org/2000/svg">
    <g clip-path="url(#clip0_0_3)">
        <mask id="mask0_0_3" style="mask-type:luminance" maskUnits="userSpaceOnUse" x="-290" y="-130" width="1001"
            height="751">
            <path d="M-289.22 620.33H710.78V-129.67H-289.22V620.33Z" fill="white" />
        </mask>
        <g mask="url(#mask0_0_3)">
            <path
                d="M425.33 242.342C425.33 359.797 330.115 455.005 212.668 455.005C95.2188 455.005 -0.00747681 359.802 -0.00747681 242.342C-0.00747681 124.896 95.2138 29.6925 212.668 29.6925C330.115 29.6925 425.33 124.896 425.33 242.342Z"
                fill="#00CAF0" />
            <mask id="mask1_0_3" style="mask-type:luminance" maskUnits="userSpaceOnUse" x="2" y="273" width="420"
                height="183">
                <path d="M2.3175 273.555H421.668V455.005H2.3175V273.555Z" fill="white" />
            </mask>
            <g mask="url(#mask1_0_3)">
                <g opacity="0.8">
                    <mask id="mask2_0_3" style="mask-type:luminance" maskUnits="userSpaceOnUse" x="2" y="273"
                        width="420" height="183">
                        <path d="M2.3175 455.005H421.668V273.555H2.3175V455.005Z" fill="white" />
                    </mask>
                    <g mask="url(#mask2_0_3)">
                        <path
                            d="M212.68 455.005C316.739 455.005 403.292 380.245 421.68 281.505C420.794 281.434 419.905 281.371 419.002 281.371C403.459 281.371 390.48 292.26 387.22 306.818C380.465 302.678 372.551 300.249 364.049 300.249C340.105 300.249 320.639 319.188 319.666 342.893C316.432 341.924 313.01 341.385 309.461 341.385C293.324 341.385 279.724 352.159 275.4 366.896C265.976 359.608 254.189 355.226 241.351 355.226C226.387 355.226 212.829 361.153 202.814 370.745C197.376 355.593 182.93 344.734 165.904 344.734C157.767 344.734 150.214 347.208 143.945 351.44C139.995 346.186 133.729 342.774 126.646 342.774C125.325 342.774 124.04 342.911 122.785 343.136C118.534 322.135 99.98 306.326 77.73 306.326C74.6887 306.326 71.725 306.638 68.8487 307.199C68.8612 306.908 68.8937 306.623 68.8937 306.326C68.8937 293.704 58.6625 283.478 46.0462 283.478C40.315 283.478 35.0912 285.6 31.08 289.086C25.8087 279.819 15.8612 273.553 4.43499 273.553C3.72374 273.553 3.02748 273.61 2.32748 273.658C17.465 376.268 105.869 455.008 212.677 455.008"
                            fill="white" />
                    </g>
                </g>
            </g>
            <mask id="mask3_0_3" style="mask-type:luminance" maskUnits="userSpaceOnUse" x="345" y="134" width="23"
                height="23">
                <path d="M345.293 134.68H367.581V156.97H345.293V134.68Z" fill="white" />
            </mask>
            <g mask="url(#mask3_0_3)">
                <g opacity="0.8">
                    <mask id="mask4_0_3" style="mask-type:luminance" maskUnits="userSpaceOnUse" x="345" y="134"
                        width="23" height="23">
                        <path d="M345.293 156.967H367.581V134.677H345.293V156.967Z" fill="white" />
                    </mask>
                    <g mask="url(#mask4_0_3)">
                        <path
                            d="M366.555 144.792C361.54 144.792 357.461 140.716 357.461 135.699C357.461 135.131 357.001 134.675 356.434 134.675C355.869 134.675 355.41 135.131 355.41 135.699C355.41 140.716 351.33 144.792 346.316 144.792C345.751 144.792 345.289 145.252 345.289 145.82C345.289 146.384 345.751 146.844 346.316 146.844C351.33 146.844 355.41 150.924 355.41 155.937C355.41 156.505 355.869 156.964 356.434 156.964C357.001 156.964 357.461 156.505 357.461 155.937C357.461 150.924 361.54 146.844 366.555 146.844C367.121 146.844 367.577 146.384 367.577 145.82C367.577 145.252 367.121 144.792 366.555 144.792Z"
                            fill="white" />
                    </g>
                </g>
            </g>
            <mask id="mask5_0_3" style="mask-type:luminance" maskUnits="userSpaceOnUse" x="67" y="103" width="23"
                height="23">
                <path d="M67.5675 103.268H89.8562V125.556H67.5675V103.268Z" fill="white" />
            </mask>
            <g mask="url(#mask5_0_3)">
                <g opacity="0.8">
                    <mask id="mask6_0_3" style="mask-type:luminance" maskUnits="userSpaceOnUse" x="67" y="103"
                        width="23" height="23">
                        <path d="M67.5675 125.555H89.8562V103.266H67.5675V125.555Z" fill="white" />
                    </mask>
                    <g mask="url(#mask6_0_3)">
                        <path
                            d="M88.83 113.393C83.8163 113.393 79.7363 109.315 79.7363 104.299C79.7363 103.731 79.2763 103.275 78.7113 103.275C78.145 103.275 77.685 103.731 77.685 104.299C77.685 109.315 73.605 113.393 68.5925 113.393C68.0263 113.393 67.5663 113.851 67.5663 114.419C67.5663 114.984 68.0263 115.443 68.5925 115.443C73.605 115.443 77.685 119.523 77.685 124.538C77.685 125.104 78.145 125.564 78.7113 125.564C79.2763 125.564 79.7363 125.104 79.7363 124.538C79.7363 119.523 83.8163 115.443 88.83 115.443C89.3963 115.443 89.855 114.984 89.855 114.419C89.855 113.851 89.3963 113.393 88.83 113.393Z"
                            fill="white" />
                    </g>
                </g>
            </g>
            <mask id="mask7_0_3" style="mask-type:luminance" maskUnits="userSpaceOnUse" x="371" y="173" width="16"
                height="16">
                <path d="M371.418 173.78H386.02V188.382H371.418V173.78Z" fill="white" />
            </mask>
            <g mask="url(#mask7_0_3)">
                <g opacity="0.8">
                    <mask id="mask8_0_3" style="mask-type:luminance" maskUnits="userSpaceOnUse" x="371" y="173"
                        width="16" height="16">
                        <path d="M371.418 188.38H386.021V173.777H371.418V188.38Z" fill="white" />
                    </mask>
                    <g mask="url(#mask8_0_3)">
                        <path
                            d="M385.355 180.405C382.067 180.405 379.395 177.733 379.395 174.449C379.395 174.076 379.095 173.776 378.722 173.776C378.351 173.776 378.052 174.076 378.052 174.449C378.052 177.733 375.379 180.405 372.094 180.405C371.725 180.405 371.421 180.705 371.421 181.078C371.421 181.446 371.725 181.75 372.094 181.75C375.379 181.75 378.052 184.423 378.052 187.706C378.052 188.079 378.351 188.379 378.722 188.379C379.095 188.379 379.395 188.079 379.395 187.706C379.395 184.423 382.067 181.75 385.355 181.75C385.724 181.75 386.024 181.446 386.024 181.078C386.024 180.705 385.724 180.405 385.355 180.405Z"
                            fill="white" />
                    </g>
                </g>
            </g>
            <mask id="mask9_0_3" style="mask-type:luminance" maskUnits="userSpaceOnUse" x="52" y="157" width="16"
                height="15">
                <path d="M52.9675 157.18H67.5713V171.784H52.9675V157.18Z" fill="white" />
            </mask>
            <g mask="url(#mask9_0_3)">
                <g opacity="0.8">
                    <mask id="mask10_0_3" style="mask-type:luminance" maskUnits="userSpaceOnUse" x="52" y="157"
                        width="16" height="15">
                        <path d="M52.9675 171.793H67.57V157.189H52.9675V171.793Z" fill="white" />
                    </mask>
                    <g mask="url(#mask10_0_3)">
                        <path
                            d="M66.8925 163.818C63.6063 163.818 60.9325 161.145 60.9325 157.861C60.9325 157.489 60.6325 157.189 60.2613 157.189C59.89 157.189 59.5913 157.489 59.5913 157.861C59.5913 161.145 56.9175 163.818 53.6313 163.818C53.2625 163.818 52.96 164.118 52.96 164.49C52.96 164.859 53.2625 165.163 53.6313 165.163C56.9175 165.163 59.5913 167.835 59.5913 171.119C59.5913 171.491 59.89 171.791 60.2613 171.791C60.6325 171.791 60.9325 171.491 60.9325 171.119C60.9325 167.835 63.6063 165.163 66.8925 165.163C67.2613 165.163 67.5638 164.859 67.5638 164.49C67.5638 164.118 67.2613 163.818 66.8925 163.818Z"
                            fill="white" />
                    </g>
                </g>
            </g>
            <mask id="mask11_0_3" style="mask-type:luminance" maskUnits="userSpaceOnUse" x="339" y="219" width="12"
                height="12">
                <path d="M339.642 219.08H350.931V230.369H339.642V219.08Z" fill="white" />
            </mask>
            <g mask="url(#mask11_0_3)">
                <g opacity="0.8">
                    <mask id="mask12_0_3" style="mask-type:luminance" maskUnits="userSpaceOnUse" x="339" y="219"
                        width="12" height="12">
                        <path d="M339.642 230.367H350.931V219.08H339.642V230.367Z" fill="white" />
                    </mask>
                    <g mask="url(#mask12_0_3)">
                        <path
                            d="M350.417 224.205C347.877 224.205 345.809 222.14 345.809 219.599C345.809 219.311 345.577 219.08 345.289 219.08C345.004 219.08 344.772 219.311 344.772 219.599C344.772 222.14 342.707 224.205 340.165 224.205C339.879 224.205 339.645 224.436 339.645 224.725C339.645 225.01 339.879 225.244 340.165 225.244C342.707 225.244 344.772 227.309 344.772 229.849C344.772 230.135 345.004 230.369 345.289 230.369C345.577 230.369 345.809 230.135 345.809 229.849C345.809 227.309 347.877 225.244 350.417 225.244C350.704 225.244 350.934 225.01 350.934 224.725C350.934 224.436 350.704 224.205 350.417 224.205Z"
                            fill="white" />
                    </g>
                </g>
            </g>
            <path
                d="M132.193 179.668C137.47 167.899 154.066 151.11 154.77 150.401C155.381 149.783 156.278 149.555 157.113 149.786C157.945 150.023 158.584 150.693 158.78 151.539L180.851 247.056C181.026 247.811 180.823 248.603 180.306 249.175C179.791 249.759 179.028 250.059 178.259 249.956C178.25 249.956 177.13 249.831 175.305 249.831C167.293 249.831 147.988 252.149 141.813 273.618C141.538 274.57 140.706 275.255 139.719 275.335C139.654 275.338 139.588 275.338 139.523 275.338C138.614 275.338 137.773 274.819 137.375 273.984C117.316 231.865 126.834 191.62 132.193 179.668Z"
                fill="#E67000" />
            <mask id="mask13_0_3" style="mask-type:luminance" maskUnits="userSpaceOnUse" x="186" y="257" width="53"
                height="109">
                <path d="M186.343 257.38H238.871V365.559H186.343V257.38Z" fill="white" />
            </mask>
            <g mask="url(#mask13_0_3)">
                <g opacity="0.3">
                    <mask id="mask14_0_3" style="mask-type:luminance" maskUnits="userSpaceOnUse" x="186" y="257"
                        width="53" height="109">
                        <path d="M186.355 365.555H238.881V257.376H186.355V365.555Z" fill="white" />
                    </mask>
                    <g mask="url(#mask14_0_3)">
                        <mask id="mask15_0_3" style="mask-type:luminance" maskUnits="userSpaceOnUse" x="186" y="257"
                            width="53" height="109">
                            <mask id="mask16_0_3" style="mask-type:luminance" maskUnits="userSpaceOnUse" x="186" y="257"
                                width="53" height="109">
                                <path d="M186.355 257.38H238.882V365.559H186.355V257.38Z" fill="white" />
                            </mask>
                            <g mask="url(#mask16_0_3)">
                                <path d="M186.355 257.38H238.881V365.559H186.355V257.38Z" fill="black" />
                                <mask id="mask17_0_3" style="mask-type:luminance" maskUnits="userSpaceOnUse" x="186"
                                    y="257" width="53" height="109">
                                    <path d="M186.355 257.38H238.882V365.559H186.355V257.38Z" fill="white" />
                                </mask>
                                <g mask="url(#mask17_0_3)">
                                    <path d="M186.355 257.38H238.881V365.559H186.355V257.38Z"
                                        fill="url(#paint0_linear_0_3)" />
                                </g>
                            </g>
                        </mask>
                        <g mask="url(#mask15_0_3)">
                            <mask id="mask18_0_3" style="mask-type:luminance" maskUnits="userSpaceOnUse" x="186" y="257"
                                width="53" height="109">
                                <path d="M186.355 257.38H238.882V365.559H186.355V257.38Z" fill="white" />
                            </mask>
                            <g mask="url(#mask18_0_3)">
                                <path d="M186.355 257.38H238.881V365.559H186.355V257.38Z"
                                    fill="url(#paint1_linear_0_3)" />
                            </g>
                        </g>
                    </g>
                </g>
            </g>
            <path
                d="M242.393 249.642C241.844 249.191 241.125 249.005 240.424 249.144C234.761 250.257 225.345 251.581 212.61 251.581C199.874 251.581 190.455 250.257 184.798 249.144C184.099 249.005 183.378 249.186 182.826 249.642C182.275 250.097 181.956 250.77 181.956 251.479V264.376C181.956 265.549 182.806 266.544 183.961 266.727C184.603 266.83 199.818 269.241 212.61 269.241C225.4 269.241 240.615 266.83 241.259 266.727C242.411 266.544 243.264 265.549 243.264 264.376V251.479C243.264 250.77 242.945 250.097 242.393 249.642Z"
                fill="#BF5D00" />
            <mask id="mask19_0_3" style="mask-type:luminance" maskUnits="userSpaceOnUse" x="181" y="248" width="63"
                height="11">
                <path d="M181.955 248.38H243.263V258.01H181.955V248.38Z" fill="white" />
            </mask>
            <g mask="url(#mask19_0_3)">
                <g opacity="0.2">
                    <mask id="mask20_0_3" style="mask-type:luminance" maskUnits="userSpaceOnUse" x="181" y="248"
                        width="63" height="11">
                        <path d="M181.955 258.005H243.263V248.376H181.955V258.005Z" fill="white" />
                    </mask>
                    <g mask="url(#mask20_0_3)">
                        <path
                            d="M242.393 248.93C241.844 248.48 241.125 248.293 240.424 248.434C234.761 249.548 225.345 250.874 212.61 250.874C199.874 250.874 190.455 249.548 184.798 248.434C184.099 248.29 183.378 248.48 182.826 248.93C182.275 249.384 181.956 250.059 181.956 250.768V257.914C181.956 257.199 182.275 256.525 182.826 256.076C183.378 255.621 184.099 255.433 184.798 255.574C190.455 256.689 199.874 258.015 212.61 258.015C225.345 258.015 234.761 256.689 240.424 255.574C241.125 255.436 241.844 255.623 242.393 256.076C242.945 256.525 243.264 257.199 243.264 257.914V250.768C243.264 250.059 242.945 249.384 242.393 248.93Z"
                            fill="#231F20" />
                    </g>
                </g>
            </g>
            <path
                d="M212.605 0.00497437C200.93 0.00497437 153.039 61.2062 153.039 133.33C153.039 203.269 174.164 248.112 174.378 248.585C174.645 249.17 175.14 249.629 175.751 249.84C176.275 250.027 188.908 254.404 212.605 254.404C236.299 254.404 248.933 250.027 249.461 249.84C250.069 249.629 250.566 249.17 250.83 248.585C251.046 248.112 272.17 203.269 272.17 133.33C272.17 61.2062 224.279 0.00497437 212.605 0.00497437Z"
                fill="#FF7C00" />
            <path
                d="M247.492 40.93C233.736 15.8575 218.637 0.00247955 212.615 0.00247955C206.589 0.00247955 191.492 15.8575 177.736 40.93C181.644 42.08 193.07 44.8837 212.615 44.8837C232.159 44.8837 243.586 42.08 247.492 40.93Z"
                fill="#BF5D00" />
            <path
                d="M212.605 131.755C202.442 131.755 194.174 123.488 194.174 113.325C194.174 103.161 202.442 94.8938 212.605 94.8938C222.767 94.8938 231.034 103.161 231.034 113.325C231.034 123.488 222.767 131.755 212.605 131.755Z"
                fill="white" />
            <path
                d="M212.605 93.6425C201.752 93.6425 192.924 102.471 192.924 113.325C192.924 124.176 201.752 133.004 212.605 133.004C223.456 133.004 232.284 124.176 232.284 113.325C232.284 102.471 223.456 93.6425 212.605 93.6425ZM212.605 96.1425C222.092 96.1425 229.784 103.834 229.784 113.325C229.784 122.811 222.092 130.504 212.605 130.504C203.115 130.504 195.424 122.811 195.424 113.325C195.424 103.834 203.115 96.1425 212.605 96.1425Z"
                fill="#E66E00" />
            <path
                d="M212.605 186.23C205.722 186.23 200.124 180.631 200.124 173.751C200.124 166.869 205.722 161.27 212.605 161.27C219.486 161.27 225.084 166.869 225.084 173.751C225.084 180.631 219.486 186.23 212.605 186.23Z"
                fill="white" />
            <path
                d="M212.605 160.017C205.034 160.017 198.874 166.177 198.874 173.749C198.874 181.32 205.034 187.477 212.605 187.477C220.176 187.477 226.334 181.32 226.334 173.749C226.334 166.177 220.176 160.017 212.605 160.017ZM212.605 162.517C218.809 162.517 223.834 167.546 223.834 173.749C223.834 179.951 218.809 184.977 212.605 184.977C206.402 184.977 201.374 179.951 201.374 173.749C201.374 167.546 206.402 162.517 212.605 162.517Z"
                fill="#E66E00" />
            <path
                d="M198.768 116.655C198.768 107.165 206.459 99.4725 215.948 99.4725C219.841 99.4725 223.418 100.782 226.3 102.965C223.163 98.825 218.209 96.14 212.615 96.14C203.125 96.14 195.434 103.832 195.434 113.322C195.434 118.916 198.12 123.872 202.263 127.01C200.078 124.129 198.768 120.549 198.768 116.655Z"
                fill="#E6E7E8" />
            <path
                d="M204.718 177.08C204.718 170.877 209.746 165.849 215.948 165.849C218.194 165.849 220.278 166.524 222.03 167.659C220.03 164.57 216.569 162.516 212.615 162.516C206.413 162.516 201.384 167.545 201.384 173.747C201.384 177.701 203.44 181.166 206.531 183.166C205.394 181.409 204.718 179.329 204.718 177.08Z"
                fill="#E6E7E8" />
            <path
                d="M292.58 179.668C287.305 167.899 270.709 151.11 270.003 150.401C269.394 149.783 268.495 149.555 267.661 149.786C266.829 150.023 266.191 150.693 265.995 151.539L243.923 247.056C243.749 247.811 243.953 248.603 244.469 249.175C244.983 249.759 245.748 250.059 246.516 249.956C246.528 249.956 247.645 249.831 249.471 249.831C257.481 249.831 276.785 252.149 282.965 273.618C283.234 274.57 284.069 275.255 285.054 275.335C285.119 275.338 285.186 275.338 285.253 275.338C286.164 275.338 286.999 274.819 287.401 273.984C307.456 231.865 297.939 191.62 292.58 179.668Z"
                fill="#FF7C00" />
            <path
                d="M255.092 56.33C263.185 76.6975 267.445 119.99 262.719 149.479C267.165 154.13 279.265 167.289 283.632 177.027C288.809 188.577 297.86 226.517 280.392 267.049C281.411 269.032 282.306 271.215 283.02 273.677C283.294 274.63 284.125 275.314 285.114 275.395C285.179 275.401 285.241 275.401 285.307 275.401C286.218 275.401 287.057 274.879 287.455 274.044C307.515 231.925 297.999 191.679 292.636 179.724C288.271 169.985 276.165 156.829 271.722 152.175C272.052 146.135 272.239 139.866 272.239 133.381C272.239 104.984 264.811 78.275 255.092 56.3313"
                fill="#FF9633" />
            <mask id="mask21_0_3" style="mask-type:luminance" maskUnits="userSpaceOnUse" x="153" y="0" width="79"
                height="253">
                <path d="M153.043 0.00497437H231.559V252.03H153.043V0.00497437Z" fill="white" />
            </mask>
            <g mask="url(#mask21_0_3)">
                <g opacity="0.2">
                    <mask id="mask22_0_3" style="mask-type:luminance" maskUnits="userSpaceOnUse" x="153" y="0"
                        width="79" height="253">
                        <path d="M153.043 252.018H231.559V0.00500488H153.043V252.018Z" fill="white" />
                    </mask>
                    <g mask="url(#mask22_0_3)">
                        <path
                            d="M167.805 148.08C167.805 75.965 215.696 14.755 227.373 14.755C228.468 14.755 229.89 15.3025 231.559 16.3413C223.421 5.95251 216.251 -0.00624084 212.609 -0.00624084C200.934 -0.00624084 153.043 61.195 153.043 133.319C153.043 203.258 174.168 248.101 174.381 248.574C174.649 249.159 175.144 249.618 175.755 249.829C176.006 249.918 179.026 250.954 184.645 252.018C178.385 234.499 167.805 197.588 167.805 148.08Z"
                            fill="#231F20" />
                    </g>
                </g>
            </g>
        </g>
    </g>
    <defs>
        <linearGradient id="paint0_linear_0_3" x1="212.58" y1="365.567" x2="212.58" y2="257.389"
            gradientUnits="userSpaceOnUse">
            <stop stop-color="#231F20" />
            <stop offset="1" stop-color="white" />
        </linearGradient>
        <linearGradient id="paint1_linear_0_3" x1="212.58" y1="365.567" x2="212.58" y2="257.389"
            gradientUnits="userSpaceOnUse">
            <stop stop-color="white" />
            <stop offset="1" stop-color="white" />
        </linearGradient>
        <clipPath id="clip0_0_3">
            <rect width="425.33" height="455" fill="white" />
        </clipPath>
    </defs>
</svg>